<svg width="120" height="120" viewBox="0 0 120 120" fill="none" xmlns="http://www.w3.org/2000/svg">
<mask id="path-1-inside-1_87_1060" fill="white">
<path fill-rule="evenodd" clip-rule="evenodd" d="M58.0896 0.246094C49.4452 0.246094 42.4375 7.25379 42.4375 15.8982V73.1363C36.0997 77.8858 32 85.4486 32 93.967C32 108.345 43.6795 120 58.0869 120C72.4943 120 84.1738 108.345 84.1738 93.967C84.1738 85.4511 80.0764 77.8901 73.7418 73.1404V15.8982C73.7418 7.25379 66.7341 0.246094 58.0896 0.246094Z"/>
</mask>
<path d="M42.4375 73.1363L44.2366 75.537L45.4375 74.6371V73.1363H42.4375ZM73.7418 73.1404H70.7418V74.6407L71.9421 75.5407L73.7418 73.1404ZM45.4375 15.8982C45.4375 8.91064 51.1021 3.24609 58.0896 3.24609V-2.75391C47.7883 -2.75391 39.4375 5.59693 39.4375 15.8982H45.4375ZM45.4375 73.1363V15.8982H39.4375V73.1363H45.4375ZM35 93.967C35 86.4347 38.621 79.7453 44.2366 75.537L40.6384 70.7356C33.5785 76.0263 29 84.4625 29 93.967H35ZM58.0869 117C45.3306 117 35 106.682 35 93.967H29C29 110.008 42.0284 123 58.0869 123V117ZM81.1738 93.967C81.1738 106.682 70.8432 117 58.0869 117V123C74.1453 123 87.1738 110.008 87.1738 93.967H81.1738ZM71.9421 75.5407C77.5549 79.7491 81.1738 86.4369 81.1738 93.967H87.1738C87.1738 84.4653 82.598 76.0311 75.5415 70.7402L71.9421 75.5407ZM70.7418 15.8982V73.1404H76.7418V15.8982H70.7418ZM58.0896 3.24609C65.0772 3.24609 70.7418 8.91065 70.7418 15.8982H76.7418C76.7418 5.59694 68.3909 -2.75391 58.0896 -2.75391V3.24609Z" fill="#8C8C8C" mask="url(#path-1-inside-1_87_1060)"/>
<path fill-rule="evenodd" clip-rule="evenodd" d="M63.3098 39.2969H52.875V79.2355C46.7943 81.379 42.4375 87.1656 42.4375 93.9677C42.4375 102.594 49.4452 109.588 58.0896 109.588C66.7341 109.588 73.7418 102.594 73.7418 93.9677C73.7418 87.1677 69.3876 81.3825 63.3098 79.2374V39.2969Z" fill="#8C8C8C"/>
<path d="M103.148 23.6133V98.0945" stroke="#8C8C8C" stroke-width="3"/>
<path d="M110.466 30.9148L103.149 22.1523L95.832 30.9148" stroke="#8C8C8C" stroke-width="3"/>
<path d="M110.466 90.7922L103.149 99.5547L95.832 90.7922" stroke="#8C8C8C" stroke-width="3"/>
</svg>
