<svg width="120" height="120" viewBox="0 0 120 120" fill="none" xmlns="http://www.w3.org/2000/svg">
<path d="M33.418 55.2513V2.23047H89.7526V118.214H33.418V66.8496" stroke="#8C8C8C" stroke-width="3"/>
<path fill-rule="evenodd" clip-rule="evenodd" d="M90.9961 1.33594L40.057 8.72176V55.6387L43.3489 55.6305V11.5136L87.7042 5.0824V73.7348L43.3489 80.166V67.0726L40.057 67.0808V83.9125L90.9961 76.5266V1.33594Z" fill="#8C8C8C"/>
<path d="M32.8633 73.793L42.5285 73.793" stroke="#8C8C8C" stroke-width="3"/>
<path d="M33.832 95.0586L88.924 95.0586" stroke="#8C8C8C" stroke-width="3"/>
<path d="M46.758 68.6861L54.6904 60.9975L45.6975 54.5816" stroke="#8C8C8C" stroke-width="3"/>
<path d="M28.0681 17.1445C15.594 20.8014 6.90625 28.9844 6.90625 38.4926C6.90625 51.4096 22.94 61.8809 42.7186 61.8809C46.4019 61.8809 49.9553 61.5177 53.2995 60.8433" stroke="#8C8C8C" stroke-width="3"/>
</svg>
