<svg width="120" height="120" viewBox="0 0 120 120" fill="none" xmlns="http://www.w3.org/2000/svg">
<path d="M94.7109 81.998L94.7109 110.998" stroke="#8C8C8C" stroke-width="3"/>
<path d="M85.5859 103.607L94.4831 112.379L103.38 103.607" stroke="#8C8C8C" stroke-width="3"/>
<path d="M31.6556 88.998L26.4726 83.5422C25.7393 82.7703 25.7393 81.5592 26.4726 80.7872L30.347 76.7089C31.0803 75.9369 31.0803 74.7258 30.347 73.9539L26.4726 69.8755C25.7393 69.1036 25.7393 67.8925 26.4726 67.1206L30.347 63.0422C31.0803 62.2703 31.0803 61.0592 30.347 60.2872L26.4726 56.2089C25.7393 55.4369 25.7393 54.2258 26.4726 53.4539L31.6556 47.998" stroke="#8C8C8C" stroke-width="3"/>
<path d="M21.9173 88.998L16.7344 83.5422C16.001 82.7703 16.001 81.5592 16.7344 80.7872L20.6087 76.7089C21.342 75.9369 21.342 74.7258 20.6087 73.9539L16.7344 69.8755C16.001 69.1036 16.001 67.8925 16.7344 67.1206L20.6087 63.0422C21.342 62.2703 21.342 61.0592 20.6087 60.2872L16.7344 56.2089C16.001 55.4369 16.001 54.2258 16.7344 53.4539L21.9173 47.998" stroke="#8C8C8C" stroke-width="3"/>
<path d="M87.6022 72.998L92.7852 67.5422C93.5185 66.7703 93.5185 65.5592 92.7852 64.7872L88.9108 60.7089C88.1775 59.9369 88.1775 58.7258 88.9108 57.9539L92.7852 53.8755C93.5185 53.1036 93.5185 51.8925 92.7852 51.1206L88.9108 47.0422C88.1775 46.2703 88.1775 45.0592 88.9108 44.2872L92.7852 40.2089C93.5185 39.4369 93.5185 38.2258 92.7852 37.4539L87.6022 31.998" stroke="#8C8C8C" stroke-width="3"/>
<path d="M97.3405 72.998L102.523 67.5422C103.257 66.7703 103.257 65.5592 102.523 64.7872L98.6491 60.7089C97.9158 59.9369 97.9158 58.7258 98.6491 57.9539L102.523 53.8755C103.257 53.1036 103.257 51.8925 102.523 51.1206L98.6491 47.0422C97.9158 46.2703 97.9158 45.0592 98.6491 44.2872L102.523 40.2089C103.257 39.4369 103.257 38.2258 102.523 37.4539L97.3405 31.998" stroke="#8C8C8C" stroke-width="3"/>
<mask id="path-7-inside-1_744_1043" fill="white">
<path fill-rule="evenodd" clip-rule="evenodd" d="M67.1394 0H51.7746V38.3068C45.7904 38.9849 41.1406 44.0644 41.1406 50.2299V120H77.7799V50.2299C77.7799 44.0622 73.1267 38.9812 67.1394 38.3061V0Z"/>
</mask>
<path d="M51.7746 0V-3H48.7746V0H51.7746ZM67.1394 0H70.1394V-3H67.1394V0ZM51.7746 38.3068L52.1123 41.2877L54.7746 40.9861V38.3068H51.7746ZM41.1406 120H38.1406V123H41.1406V120ZM77.7799 120V123H80.7799V120H77.7799ZM67.1394 38.3061H64.1394V40.9868L66.8033 41.2872L67.1394 38.3061ZM51.7746 3H67.1394V-3H51.7746V3ZM54.7746 38.3068V0H48.7746V38.3068H54.7746ZM44.1406 50.2299C44.1406 45.6078 47.6274 41.796 52.1123 41.2877L51.4368 35.3259C43.9534 36.1739 38.1406 42.521 38.1406 50.2299H44.1406ZM44.1406 120V50.2299H38.1406V120H44.1406ZM77.7799 117H41.1406V123H77.7799V117ZM74.7799 50.2299V120H80.7799V50.2299H74.7799ZM66.8033 41.2872C71.2906 41.7932 74.7799 45.6062 74.7799 50.2299H80.7799C80.7799 42.5182 74.9629 36.1692 67.4756 35.325L66.8033 41.2872ZM64.1394 0V38.3061H70.1394V0H64.1394Z" fill="#8C8C8C" mask="url(#path-7-inside-1_744_1043)"/>
<path d="M42.8555 60H75.4269" stroke="#8C8C8C" stroke-width="3"/>
<path d="M53.1406 17.1426L66.8549 17.1426" stroke="#8C8C8C" stroke-width="3"/>
<path d="M42.8555 97.7148L75.4269 97.7148" stroke="#8C8C8C" stroke-width="3"/>
</svg>
