<svg width="125" height="124" viewBox="0 0 125 124" fill="none" xmlns="http://www.w3.org/2000/svg">
<path d="M26.6719 41.594V36.4616V2.24609H95.2433V122.001H26.6719V94.6281" stroke="#8C8C8C" stroke-width="3"/>
<path d="M36.957 38.1735V14.2227H84.957V99.7615H36.957V89.4969" stroke="#8C8C8C" stroke-width="3"/>
<path d="M21.4136 53.0464L33.4609 43.4274C34.1302 42.893 36.0042 42.4921 38.1462 45.1638C40.2881 47.8355 39.485 49.5722 38.8157 50.1066L31.4535 55.9849" stroke="#8C8C8C" stroke-width="3"/>
<path d="M37.4803 51.1767L41.496 47.9704C42.1653 47.436 44.0394 47.0351 46.1813 49.7068C48.3233 52.3785 47.5202 54.1152 46.8509 54.6496L35.4729 63.7342" stroke="#8C8C8C" stroke-width="3"/>
<path d="M39.2872 60.6884L43.864 57.0342C44.6268 56.4251 46.6878 55.875 48.8298 58.5466C50.9717 61.2183 49.9816 63.1043 49.2188 63.7134L40.8281 70.4128" stroke="#8C8C8C" stroke-width="3"/>
<path d="M48.0543 65.7348C52.3942 68.108 50.9841 72.1276 50.3148 72.662L42.9526 78.5403C39.6061 81.2122 32.3409 86.6638 30.0517 87.0945C27.7624 87.5251 23.9438 89.0605 22.3207 89.7743" stroke="#8C8C8C" stroke-width="3"/>
<path d="M5.62056 68.9451C7.31604 66.4959 10.9747 60.2883 12.0453 55.0516C13.3837 48.5056 20.3444 46.2343 26.1007 49.3066" stroke="#8C8C8C" stroke-width="3"/>
<path d="M48.957 42.4485L54.0999 34.75" stroke="#8C8C8C" stroke-width="3"/>
<path d="M52.389 46.5499L60.6999 42.449" stroke="#8C8C8C" stroke-width="3"/>
<path d="M54.1005 52.2867L63.3527 52.8822" stroke="#8C8C8C" stroke-width="3"/>
</svg>
