<svg width="120" height="120" viewBox="0 0 120 120" fill="none" xmlns="http://www.w3.org/2000/svg">
<rect x="16.9277" y="16.9297" width="86.1429" height="86.1429" stroke="#8C8C8C" stroke-width="3"/>
<path d="M37.2643 35.2612L38.5698 32.9546L39.8752 35.2612C41.5261 38.1781 43.5674 42.6472 44.1747 46.4795C44.4742 48.3694 44.4713 50.3759 43.6238 51.9715C42.6893 53.7309 40.9302 54.6429 38.5698 54.6429C36.2093 54.6429 34.4502 53.7309 33.5157 51.9715C32.6682 50.3759 32.6653 48.3694 32.9648 46.4795C33.5721 42.6472 35.6134 38.1781 37.2643 35.2612Z" stroke="#8C8C8C" stroke-width="3"/>
<path d="M59.5514 35.2612L60.8569 32.9546L62.1623 35.2612C63.8132 38.1781 65.8545 42.6472 66.4619 46.4795C66.7614 48.3694 66.7584 50.3759 65.9109 51.9715C64.9764 53.7309 63.2173 54.6429 60.8569 54.6429C58.4964 54.6429 56.7373 53.7309 55.8028 51.9715C54.9553 50.3759 54.9524 48.3694 55.2519 46.4795C55.8592 42.6472 57.9005 38.1781 59.5514 35.2612Z" stroke="#8C8C8C" stroke-width="3"/>
<path d="M47.5514 66.1205L48.8569 63.814L50.1623 66.1205C51.8132 69.0375 53.8545 73.5066 54.4619 77.3389C54.7614 79.2288 54.7584 81.2353 53.9109 82.8308C52.9764 84.5903 51.2173 85.5022 48.8569 85.5022C46.4964 85.5022 44.7373 84.5903 43.8028 82.8308C42.9553 81.2353 42.9524 79.2288 43.2519 77.3389C43.8592 73.5066 45.9005 69.0375 47.5514 66.1205Z" stroke="#8C8C8C" stroke-width="3"/>
<path d="M81.8366 35.2612L83.142 32.9546L84.4474 35.2612C86.0983 38.1781 88.1397 42.6472 88.747 46.4795C89.0465 48.3694 89.0435 50.3759 88.1961 51.9715C87.2616 53.7309 85.5025 54.6429 83.142 54.6429C80.7816 54.6429 79.0225 53.7309 78.088 51.9715C77.2405 50.3759 77.2375 48.3694 77.537 46.4795C78.1443 42.6472 80.1857 38.1781 81.8366 35.2612Z" stroke="#8C8C8C" stroke-width="3"/>
<path d="M69.8366 66.1205L71.142 63.814L72.4474 66.1205C74.0983 69.0375 76.1397 73.5066 76.747 77.3389C77.0465 79.2288 77.0435 81.2353 76.1961 82.8308C75.2616 84.5903 73.5025 85.5022 71.142 85.5022C68.7816 85.5022 67.0225 84.5903 66.088 82.8308C65.2405 81.2353 65.2375 79.2288 65.537 77.3389C66.1443 73.5066 68.1857 69.0375 69.8366 66.1205Z" stroke="#8C8C8C" stroke-width="3"/>
</svg>
