<svg width="120" height="120" viewBox="0 0 120 120" fill="none" xmlns="http://www.w3.org/2000/svg">
<rect x="16.9277" y="16.9258" width="86.1429" height="86.1429" stroke="#8C8C8C" stroke-width="3"/>
<path d="M89.9989 17.1406L68.5703 38.5692" stroke="#8C8C8C" stroke-width="3"/>
<path d="M84.8566 82.2812L64.2852 102.853" stroke="#8C8C8C" stroke-width="3"/>
<path d="M32.5711 41.1406L17.1426 56.5692" stroke="#8C8C8C" stroke-width="3"/>
<path d="M99.4272 17.1406L85.7129 30.8549" stroke="#8C8C8C" stroke-width="3"/>
<path d="M94.2846 82.2812L80.5703 95.9955" stroke="#8C8C8C" stroke-width="3"/>
<path d="M83.9994 32.5703L82.2852 34.2846" stroke="#8C8C8C" stroke-width="3"/>
<path d="M78.8569 97.7109L77.1426 99.4252" stroke="#8C8C8C" stroke-width="3"/>
<path d="M43.5217 51.005L44.3277 54.105L48.2337 53.02V71H52.0157V49.145H49.3497L43.5217 51.005ZM75.5287 60.119C75.5287 53.888 71.8087 48.928 66.1047 48.928C60.4007 48.928 56.6187 53.95 56.6187 60.181C56.6187 66.412 60.3387 71.372 66.0427 71.372C71.7467 71.372 75.5287 66.35 75.5287 60.119ZM71.5917 60.181C71.5917 64.49 69.4837 67.931 66.1047 67.931C62.7257 67.931 60.5557 64.459 60.5557 60.119C60.5557 55.779 62.6637 52.369 66.0427 52.369C69.4217 52.369 71.5917 55.872 71.5917 60.181Z" fill="#8C8C8C"/>
</svg>
