<svg width="120" height="120" viewBox="0 0 120 120" fill="none" xmlns="http://www.w3.org/2000/svg">
<circle cx="59.9998" cy="59.9998" r="51.6429" stroke="#8C8C8C" stroke-width="3"/>
<path d="M48.475 34.2571V42.2891H50.443V31.0891H48.347L44.939 36.3851L41.531 31.0891H39.435V42.2891H41.371V34.2891L44.875 39.5371H44.939L48.475 34.2571ZM59.0376 31.0091H57.2136L52.2856 42.2891H54.3016L55.4536 39.5851H60.7496L61.8856 42.2891H63.9656L59.0376 31.0091ZM60.0296 37.8411H56.1736L58.0936 33.3611L60.0296 37.8411ZM65.9183 31.0891V42.2891H67.8863V31.0891H65.9183ZM78.6284 38.8331L72.6284 31.0891H70.8044V42.2891H72.7404V34.3211L78.9164 42.2891H80.5644V31.0891H78.6284V38.8331Z" fill="#8C8C8C"/>
<path d="M53.1112 83.6789V91.7109H55.0792V80.5109H52.9832L49.5752 85.8069L46.1672 80.5109H44.0712V91.7109H46.0072V83.7109L49.5112 88.9589H49.5752L53.1112 83.6789ZM57.9938 80.5109V91.7109H59.9618V80.5109H57.9938ZM70.7039 88.2549L64.7039 80.5109H62.8799V91.7109H64.8159V83.7429L70.9919 91.7109H72.6399V80.5109H70.7039V88.2549ZM75.5525 80.5109V91.7109H77.5205V80.5109H75.5525Z" fill="#8C8C8C"/>
<path d="M12.8569 82.8788C24.9451 70.8576 41.6049 63.4287 59.9998 63.4287C78.3947 63.4287 95.0545 70.8576 107.143 82.8788" stroke="#8C8C8C" stroke-width="3"/>
<path d="M12 41.1426C24.1516 53.6732 41.1663 61.4607 60 61.4607C78.8337 61.4607 95.8484 53.6732 108 41.1426" stroke="#8C8C8C" stroke-width="3"/>
</svg>
