<svg width="120" height="121" viewBox="0 0 120 121" fill="none" xmlns="http://www.w3.org/2000/svg">
<path d="M111 121V2H11V121" stroke="#8C8C8C" stroke-width="3"/>
<path d="M10 109L112 109" stroke="#8C8C8C" stroke-width="3"/>
<path d="M99.5 54.5C99.5 76.6439 82.2114 94.5 61 94.5C39.7886 94.5 22.5 76.6439 22.5 54.5C22.5 32.3561 39.7886 14.5 61 14.5C82.2114 14.5 99.5 32.3561 99.5 54.5Z" stroke="#8C8C8C" stroke-width="3"/>
<path d="M71.5 32.5C71.5 37.9633 66.8598 42.5 61 42.5C55.1402 42.5 50.5 37.9633 50.5 32.5C50.5 27.0367 55.1402 22.5 61 22.5C66.8598 22.5 71.5 27.0367 71.5 32.5Z" stroke="#8C8C8C" stroke-width="3"/>
<path d="M51 31C54.1056 31.6461 57.4768 32 61 32C64.5232 32 67.8944 31.6461 71 31" stroke="#8C8C8C" stroke-width="3"/>
<path d="M51 34C54.1056 33.3539 57.4768 33 61 33C64.5232 33 67.8944 33.3539 71 34" stroke="#8C8C8C" stroke-width="3"/>
</svg>
