<svg width="122" height="120" viewBox="0 0 122 120" fill="none" xmlns="http://www.w3.org/2000/svg">
<rect x="26.2056" y="1.5" width="69.8203" height="117" stroke="#8C8C8C" stroke-width="3"/>
<path d="M26.4062 77.1426H97.533" stroke="#8C8C8C" stroke-width="3"/>
<path d="M88.7944 38.5713C88.7944 54.349 76.3473 67.0713 61.0757 67.0713C45.8041 67.0713 33.3569 54.349 33.3569 38.5713C33.3569 22.7936 45.8041 10.0713 61.0757 10.0713C76.3473 10.0713 88.7944 22.7936 88.7944 38.5713Z" stroke="#8C8C8C" stroke-width="3"/>
<circle cx="61.0002" cy="22.2859" r="6.85714" fill="#8C8C8C"/>
<path d="M17.6966 85.7139L12.3772 80.2522C11.6208 79.4756 11.6208 78.2379 12.3772 77.4613L16.3375 73.395C17.0939 72.6185 17.0939 71.3807 16.3375 70.6041L12.3772 66.5379C11.6208 65.7613 11.6208 64.5236 12.3772 63.747L16.3375 59.6807C17.0939 58.9042 17.0939 57.6664 16.3375 56.8899L12.3772 52.8236C11.6208 52.047 11.6208 50.8093 12.3772 50.0327L17.6966 44.571" stroke="#8C8C8C" stroke-width="3"/>
<path d="M7.67857 85.7139L2.3591 80.2522C1.60276 79.4756 1.60276 78.2379 2.3591 77.4613L6.31948 73.395C7.07581 72.6185 7.07581 71.3807 6.31948 70.6041L2.3591 66.5379C1.60276 65.7613 1.60276 64.5236 2.3591 63.747L6.31948 59.6807C7.07581 58.9042 7.07582 57.6664 6.31948 56.8899L2.3591 52.8236C1.60276 52.047 1.60276 50.8093 2.3591 50.0327L7.67857 44.571" stroke="#8C8C8C" stroke-width="3"/>
<path d="M104.303 51.4287L109.623 45.967C110.379 45.1904 110.379 43.9527 109.623 43.1761L105.662 39.1099C104.906 38.3333 104.906 37.0956 105.662 36.319L109.623 32.2527C110.379 31.4762 110.379 30.2384 109.623 29.4618L105.662 25.3956C104.906 24.619 104.906 23.3813 105.662 22.6047L109.623 18.5384C110.379 17.7619 110.379 16.5241 109.623 15.7476L104.303 10.2859" stroke="#8C8C8C" stroke-width="3"/>
<path d="M114.321 51.4287L119.641 45.967C120.397 45.1904 120.397 43.9527 119.641 43.1761L115.681 39.1099C114.924 38.3333 114.924 37.0956 115.681 36.319L119.641 32.2527C120.397 31.4762 120.397 30.2384 119.641 29.4618L115.681 25.3956C114.924 24.619 114.924 23.3813 115.681 22.6047L119.641 18.5384C120.397 17.7619 120.397 16.5241 119.641 15.7476L114.321 10.2859" stroke="#8C8C8C" stroke-width="3"/>
<path d="M111.089 78.8545L111.089 114.854" stroke="#8C8C8C" stroke-width="3"/>
<path d="M119 107.003L111 117.003L103 107.003" stroke="#8C8C8C" stroke-width="3"/>
</svg>
