<svg width="120" height="120" viewBox="0 0 120 120" fill="none" xmlns="http://www.w3.org/2000/svg">
<path d="M56.5476 49.2821C56.5476 46.9301 55.1476 45.5301 53.0196 44.5501C54.6716 43.6821 55.8756 42.3661 55.8756 40.1541C55.8756 37.1301 52.9916 34.8341 49.0716 34.8341C45.1516 34.8341 42.2676 37.1301 42.2676 40.1541C42.2676 42.3661 43.4716 43.6821 45.1236 44.5501C42.9116 45.4741 41.5956 46.9581 41.5956 49.3661C41.5956 52.7541 44.7876 54.9941 49.0716 54.9941C53.3556 54.9941 56.5476 52.8101 56.5476 49.2821ZM52.5716 40.4901C52.5716 42.1981 51.0876 43.4021 49.0716 43.4021C47.0556 43.4021 45.5716 42.1981 45.5716 40.4621C45.5716 38.9501 46.9716 37.7181 49.0716 37.7181C51.1716 37.7181 52.5716 38.9501 52.5716 40.4901ZM53.1876 49.1421C53.1876 50.7941 51.6476 52.1101 49.0716 52.1101C46.4956 52.1101 44.9556 50.7941 44.9556 49.1421C44.9556 47.3221 46.7476 46.1461 49.0716 46.1461C51.3956 46.1461 53.1876 47.3221 53.1876 49.1421ZM69.1164 43.5421L77.2644 35.1141H73.0364L63.7124 44.9701V35.1141H60.2684V54.7141H63.7124V49.0301L66.7644 45.8941L73.4564 54.7141H77.6284L69.1164 43.5421Z" fill="#8C8C8C"/>
<rect x="1.5" y="10.0713" width="117" height="96.4286" stroke="#8C8C8C" stroke-width="3"/>
<rect x="6.64453" y="106.5" width="106.714" height="3.85714" fill="#8C8C8C" stroke="#8C8C8C" stroke-width="3"/>
<rect x="1.5" y="10.0713" width="117" height="70.7143" stroke="#8C8C8C" stroke-width="3"/>
<rect x="8.35547" y="16.9285" width="103.286" height="57" stroke="#8C8C8C" stroke-width="3"/>
</svg>
