<svg width="120" height="120" viewBox="0 0 120 120" fill="none" xmlns="http://www.w3.org/2000/svg">
<path d="M42.9417 21.4297V94.7305C42.9417 98.221 38.5582 105.202 28.3302 105.202C17.3716 105.202 13.7188 96.4757 13.7188 91.24C13.7188 86.0042 17.3716 77.2779 28.3302 77.2779" stroke="#8C8C8C" stroke-width="3"/>
<path d="M56.569 0V106.424C56.569 109.913 60.6602 116.892 70.2064 116.892C82.1391 116.892 83.8438 108.168 83.8438 102.934C83.8438 97.7005 80.4344 88.9772 70.2064 88.9772" stroke="#8C8C8C" stroke-width="3"/>
<path d="M70.2175 11.6797V65.5446C70.2175 69.0198 74.3087 75.9701 83.8548 75.9701C95.7875 75.9701 97.4922 67.2822 97.4922 62.0695C97.4922 56.8567 94.0828 48.1688 83.8548 48.1688" stroke="#8C8C8C" stroke-width="3"/>
<path d="M6.85156 21.7891H33.423" stroke="#8C8C8C" stroke-width="3"/>
<path d="M13.4922 10.2812L26.7779 33.2928" stroke="#8C8C8C" stroke-width="3"/>
<path d="M26.7812 10.2812L13.4955 33.2928" stroke="#8C8C8C" stroke-width="3"/>
<path d="M92.5703 92.5703H114.856" stroke="#8C8C8C" stroke-width="3"/>
<path d="M97.6484 82.2812L108.954 101.864" stroke="#8C8C8C" stroke-width="3"/>
<path d="M108.961 82.2812L97.6549 101.864" stroke="#8C8C8C" stroke-width="3"/>
</svg>
