<svg width="126" height="124" viewBox="0 0 126 124" fill="none" xmlns="http://www.w3.org/2000/svg">
<path d="M27.6621 41.5979V36.4655V2.25H96.2335V122.004H27.6621V94.632" stroke="#8C8C8C" stroke-width="3"/>
<path d="M37.9512 38.1774V14.2266H85.9512V99.7654H37.9512V89.5008" stroke="#8C8C8C" stroke-width="3"/>
<path d="M22.3502 53.0581L34.3974 43.4391C35.0667 42.9047 36.9408 42.5039 39.0827 45.1755C41.2246 47.8472 40.4215 49.5839 39.7522 50.1183L32.39 55.9966" stroke="#8C8C8C" stroke-width="3"/>
<path d="M38.4129 51.1845L42.4287 47.9782C43.0979 47.4438 44.972 47.0429 47.1139 49.7146C49.2559 52.3863 48.4528 54.123 47.7835 54.6574L36.4055 63.742" stroke="#8C8C8C" stroke-width="3"/>
<path d="M40.2198 60.6923L44.7966 57.0381C45.5594 56.429 47.6204 55.8789 49.7624 58.5505C51.9043 61.2222 50.9142 63.1082 50.1514 63.7173L41.7607 70.4167" stroke="#8C8C8C" stroke-width="3"/>
<path d="M48.9869 65.7465C53.3268 68.1197 51.9167 72.1393 51.2474 72.6737L43.8852 78.552C40.5387 81.2239 33.2735 86.6755 30.9843 87.1062C28.695 87.5369 24.8765 89.0722 23.2533 89.7861" stroke="#8C8C8C" stroke-width="3"/>
<path d="M6.55708 68.949C8.25257 66.4998 11.9112 60.2922 12.9819 55.0555C14.3202 48.5095 21.281 46.2382 27.0372 49.3105" stroke="#8C8C8C" stroke-width="3"/>
<path d="M49.9512 42.4485L55.094 34.75" stroke="#8C8C8C" stroke-width="3"/>
<path d="M53.3831 46.5577L61.6941 42.4568" stroke="#8C8C8C" stroke-width="3"/>
<path d="M55.0907 52.2867L64.3429 52.8822" stroke="#8C8C8C" stroke-width="3"/>
</svg>
