<svg width="120" height="120" viewBox="0 0 120 120" fill="none" xmlns="http://www.w3.org/2000/svg">
<path d="M82.2879 108.261C75.5103 111.396 67.9606 113.145 60.0022 113.145C30.6522 113.145 6.85938 89.3522 6.85938 60.0022C6.85938 30.6522 30.6522 6.85938 60.0022 6.85938C89.3522 6.85938 113.145 30.6522 113.145 60.0022C113.145 71.3404 109.594 81.8492 103.544 90.4774" stroke="#8C8C8C" stroke-width="3"/>
<path d="M63.4286 53.8208H80.9158L52.5229 89.9955L58.0387 64.0079L58.4232 62.1965H56.5714H39.1624L54.0759 43.9418L67.0701 28.0364L61.9615 52.0082L61.5752 53.8208H63.4286Z" stroke="#8C8C8C" stroke-width="3"/>
<path d="M92.5703 72L92.5703 106.286" stroke="#8C8C8C" stroke-width="3"/>
<path d="M101.143 96.0033L92.5714 106.289L84 96.0033" stroke="#8C8C8C" stroke-width="3"/>
</svg>
